<svg xmlns="http://www.w3.org/2000/svg" width="128.168" height="38.867" viewBox="0 0 128.168 38.867">
  <path id="Trazado_17110" data-name="Trazado 17110" d="M190.219,455.637h38.866V416.77H190.219Zm2.417-36.45h34.033V453.22H192.636Zm5.878,5.879h21.928v2.417h-19.51V435h13.922v2.417H200.931v7.513h19.51v2.417H198.514Zm36.356,30.571h38.867V416.77H234.87Zm2.417-36.45H271.32V453.22H237.286Zm27.389,5.694h2.738L255.8,446.7h-2.134l-11.614-21.82h2.738l9.943,18.68Zm14.845-8.111v38.867h38.866V416.77Zm36.45,36.45H281.938V419.187H315.97Zm-27.389-5.694h-2.738L298.524,423.7,311.2,447.526h-2.738l-9.942-18.68Z" transform="translate(-190.219 -416.77)"/>
</svg>

